<svg width="376" height="107" viewBox="0 0 376 107" fill="none" xmlns="http://www.w3.org/2000/svg">
<path d="M21.8272 13.8828L21.615 14.3387L21.4029 13.8828L13.3789 17.6766V43.0016H14.5997V18.4602L21.615 15.1419L28.6319 18.4602V43.0016H29.8512V17.6766L21.8272 13.8828Z" fill="#D6AE21"/>
<path d="M20.9706 14.5735C20.6195 12.937 18.5096 12.3482 16.6493 11.8289C16.0008 11.6477 15.3882 11.4756 14.8757 11.2657C12.7718 10.4067 10.3871 9.43299 9.04825 7.096C8.17563 5.57273 8.17712 3.59807 9.04975 2.06725C9.8372 0.688908 11.1671 -0.0795208 12.7405 0.00653107C15.6258 0.151461 17.9493 2.66357 19.841 7.68478C20.364 9.07368 20.8555 10.4883 21.3008 11.8877C21.3785 12.1308 21.4981 12.398 21.6206 12.6743C21.8716 13.2404 22.1301 13.8277 22.1734 14.3938L20.9691 14.5719L20.9706 14.5735ZM12.5208 1.2339C11.1402 1.2339 10.417 2.14273 10.1076 2.68471C9.44721 3.83961 9.44571 5.32967 10.1047 6.47854C11.2343 8.45018 13.3187 9.30014 15.3344 10.1244C15.7812 10.3071 16.3609 10.4686 16.9751 10.6407C17.9463 10.911 19.0281 11.2144 19.9575 11.6975C19.5675 10.5049 19.1462 9.30618 18.7024 8.12409C17.002 3.60863 15.0326 1.35619 12.6807 1.23692L12.5223 1.23239L12.5208 1.2339Z" fill="#D6AE21"/>
<path d="M22.4817 14.5752L21.2773 14.3971C21.3207 13.8295 21.5807 13.2422 21.8317 12.6746C21.9527 12.3998 22.0723 12.1341 22.15 11.891C22.6012 10.478 23.0928 9.06339 23.6098 7.68807C25.5015 2.66687 27.825 0.154757 30.7103 0.0098279C32.2763 -0.0716949 33.6151 0.692205 34.4025 2.07356C35.2752 3.60438 35.2752 5.57603 34.4025 7.0993C33.0607 9.4393 30.6775 10.4115 28.5751 11.269C28.0626 11.4789 27.45 11.6495 26.8015 11.8306C24.9412 12.3515 22.8313 12.9403 22.4787 14.5768L22.4817 14.5752ZM30.93 1.23569L30.7716 1.24022C28.4212 1.35797 26.4518 3.61193 24.7514 8.12739C24.3106 9.29739 23.8892 10.4976 23.4963 11.6993C24.4257 11.2162 25.5075 10.9128 26.4787 10.6425C27.0928 10.4704 27.6726 10.3089 28.1194 10.1262C30.1336 9.30343 32.2165 8.45348 33.3476 6.48033C34.0066 5.33297 34.0066 3.84291 33.3461 2.688C33.0383 2.14452 32.3121 1.23569 30.93 1.23569Z" fill="#D6AE21"/>
<path d="M34.5274 13.5L29.3016 17.6684L28.265 18.5012L21.6191 23.8004L14.8976 18.468L13.8515 17.6353L8.63987 13.5H1.80469V42.5796H8.66827V22.3431L12.6349 25.3003L13.8751 26.2229L19.9719 30.7651H23.2711L29.2306 26.3223L30.4661 25.4044L34.5747 22.3431V42.5796H41.4336V13.5H34.5274Z" fill="#212121"/>
<path d="M50.1836 14.0078H56.9796V43.0195H50.1836V14.0078Z" fill="#212121"/>
<path d="M81.4331 37.2196V43.0195H66.4727V14.0078H73.1848V37.2196H81.4331Z" fill="#212121"/>
<path d="M104.156 37.2196V43.0195H89.1953V14.0078H95.9075V37.2196H104.156Z" fill="#212121"/>
<path d="M118.629 19.3949V25.983H129.612V31.246H118.629V37.6292H129.612V43.0164H111.914V14.0078H129.612V19.3949H118.629Z" fill="#212121"/>
<path d="M149.502 14.0078C159.115 14.0078 164.586 21.0955 164.586 28.5152C164.586 35.9349 159.159 43.0195 149.502 43.0195H138.852V14.0078H149.502ZM145.564 19.8108V37.2165H149.17C154.6 37.2165 157.75 32.99 157.75 28.5121C157.75 24.0342 154.6 19.8108 149.17 19.8108H145.564Z" fill="#212121"/>
<path d="M171.184 28.5139C171.184 20.5573 176.903 13.2617 186.56 13.2617C196.217 13.2617 201.893 20.5573 201.893 28.5139C201.893 36.4704 196.174 43.766 186.56 43.766C176.946 43.766 171.184 36.4704 171.184 28.5139ZM195.056 28.5139C195.056 23.7474 191.823 19.316 186.56 19.316C181.297 19.316 178.063 23.7505 178.063 28.5139C178.063 33.2772 181.253 37.7148 186.56 37.7148C191.866 37.7148 195.056 33.2803 195.056 28.5139Z" fill="#212121"/>
<path d="M227.435 32.9062V14.0078H234.11V43.0195H227.103L216.657 24.3724V43.0195H209.945V14.0078H216.949L227.435 32.9062Z" fill="#212121"/>
<path d="M243.605 14.0078H250.401V43.0195H243.605V14.0078Z" fill="#212121"/>
<path d="M1.53242 60.2957H9.88922V62.1959H3.8617V66.3845H8.56112V68.2847H3.8617V74.4961H1.53242V60.2957ZM12.1092 74.4961V63.2379H14.4384V74.4961H12.1092ZM13.2942 61.7464C12.8039 61.7464 12.3884 61.5897 12.0479 61.2764C11.7073 60.9631 11.537 60.5749 11.537 60.1118C11.537 59.6486 11.7073 59.2604 12.0479 58.9471C12.3884 58.6202 12.8039 58.4568 13.2942 58.4568C13.771 58.4568 14.1796 58.6202 14.5202 58.9471C14.8743 59.2604 15.0514 59.6486 15.0514 60.1118C15.0514 60.5749 14.8743 60.9631 14.5202 61.2764C14.1796 61.5897 13.771 61.7464 13.2942 61.7464ZM17.6149 74.4961V63.2379H19.9441V65.5876C20.1212 65.1109 20.4005 64.6886 20.7819 64.3208C21.1633 63.9394 21.5991 63.6397 22.0895 63.4218C22.5935 63.2039 23.0975 63.0949 23.6015 63.0949C24.4597 63.0949 25.2088 63.2856 25.8491 63.667C26.5029 64.0348 27.0069 64.5728 27.361 65.2811C27.7288 65.9895 27.9127 66.8476 27.9127 67.8556V74.4961H25.6039V68.4073C25.6039 67.3857 25.3451 66.582 24.8274 65.9963C24.3098 65.4105 23.6288 65.1177 22.7842 65.1177C22.2394 65.1177 21.749 65.2675 21.3131 65.5672C20.8908 65.8669 20.5571 66.2823 20.3119 66.8136C20.0667 67.3312 19.9441 67.9305 19.9441 68.6116V74.4961H17.6149ZM35.379 74.6391C34.3982 74.6391 33.506 74.4007 32.7023 73.924C31.9123 73.4336 31.2789 72.7594 30.8021 71.9012C30.339 71.0294 30.1074 70.0146 30.1074 68.8568C30.1074 67.699 30.339 66.691 30.8021 65.8328C31.2789 64.961 31.9123 64.2868 32.7023 63.81C33.506 63.3333 34.3982 63.0949 35.379 63.0949C36.3052 63.0949 37.1157 63.3265 37.8104 63.7896C38.5051 64.2391 39.0091 64.8657 39.3224 65.6694V59.3762H41.6721V74.4961H40.6301C40.2486 74.4961 39.9354 74.3735 39.6902 74.1283C39.445 73.8831 39.3224 73.5698 39.3224 73.1884V72.0442C39.0091 72.8479 38.5051 73.4813 37.8104 73.9444C37.1157 74.4076 36.3052 74.6391 35.379 74.6391ZM35.9102 72.6163C36.4959 72.6163 37.0476 72.4733 37.5652 72.1872C38.0828 71.9012 38.5051 71.4789 38.832 70.9204C39.1589 70.3483 39.3224 69.6605 39.3224 68.8568C39.3224 68.0395 39.1589 67.3584 38.832 66.8136C38.5051 66.2551 38.0828 65.8328 37.5652 65.5468C37.0476 65.2607 36.4959 65.1177 35.9102 65.1177C35.3381 65.1177 34.7864 65.2607 34.2552 65.5468C33.7376 65.8328 33.3153 66.2551 32.9884 66.8136C32.6615 67.3584 32.498 68.0395 32.498 68.8568C32.498 69.6605 32.6615 70.3483 32.9884 70.9204C33.3153 71.4789 33.7376 71.9012 34.2552 72.1872C34.7864 72.4733 35.3381 72.6163 35.9102 72.6163ZM44.7928 74.4961V63.2379H47.1221V74.4961H44.7928ZM45.9779 61.7464C45.4875 61.7464 45.072 61.5897 44.7315 61.2764C44.391 60.9631 44.2207 60.5749 44.2207 60.1118C44.2207 59.6486 44.391 59.2604 44.7315 58.9471C45.072 58.6202 45.4875 58.4568 45.9779 58.4568C46.4546 58.4568 46.8633 58.6202 47.2038 58.9471C47.558 59.2604 47.7351 59.6486 47.7351 60.1118C47.7351 60.5749 47.558 60.9631 47.2038 61.2764C46.8633 61.5897 46.4546 61.7464 45.9779 61.7464ZM50.2985 74.4961V63.2379H52.6278V65.5876C52.8049 65.1109 53.0841 64.6886 53.4655 64.3208C53.8469 63.9394 54.2828 63.6397 54.7732 63.4218C55.2772 63.2039 55.7812 63.0949 56.2852 63.0949C57.1433 63.0949 57.8925 63.2856 58.5327 63.667C59.1865 64.0348 59.6905 64.5728 60.0447 65.2811C60.4125 65.9895 60.5964 66.8476 60.5964 67.8556V74.4961H58.2875V68.4073C58.2875 67.3857 58.0287 66.582 57.5111 65.9963C56.9935 65.4105 56.3124 65.1177 55.4679 65.1177C54.923 65.1177 54.4326 65.2675 53.9967 65.5672C53.5745 65.8669 53.2408 66.2823 52.9956 66.8136C52.7504 67.3312 52.6278 67.9305 52.6278 68.6116V74.4961H50.2985ZM68.7777 79.9924C67.8651 79.9924 67.0206 79.8493 66.2441 79.5633C65.4813 79.2772 64.8207 78.855 64.2622 78.2965C63.7037 77.738 63.2815 77.0569 62.9954 76.2533L65.1204 75.3951C65.4337 76.1852 65.924 76.8049 66.5915 77.2545C67.2589 77.7176 67.9877 77.9491 68.7777 77.9491C69.4179 77.9491 69.9764 77.8266 70.4532 77.5814C70.9436 77.3362 71.325 76.9684 71.5974 76.478C71.8698 75.9876 72.006 75.3815 72.006 74.6596V72.0442C71.6927 72.8479 71.1887 73.4813 70.494 73.9444C69.7994 74.4076 68.9889 74.6391 68.0626 74.6391C67.0819 74.6391 66.1896 74.4007 65.386 73.924C64.5959 73.4336 63.9625 72.7594 63.4858 71.9012C63.0226 71.0294 62.7911 70.0146 62.7911 68.8568C62.7911 67.699 63.0226 66.691 63.4858 65.8328C63.9625 64.961 64.5959 64.2868 65.386 63.81C66.1896 63.3333 67.0819 63.0949 68.0626 63.0949C68.9889 63.0949 69.7994 63.3265 70.494 63.7896C71.1887 64.2391 71.6927 64.8657 72.006 65.6694V63.2379H74.3557V74.6187C74.3557 75.4087 74.2263 76.1307 73.9675 76.7845C73.7223 77.4383 73.3614 78.0036 72.8846 78.4804C72.4079 78.9571 71.8221 79.3249 71.1274 79.5837C70.4464 79.8562 69.6631 79.9924 68.7777 79.9924ZM68.5938 72.6163C69.1796 72.6163 69.7312 72.4733 70.2489 72.1872C70.7665 71.9012 71.1887 71.4789 71.5157 70.9204C71.8426 70.3483 72.006 69.6605 72.006 68.8568C72.006 68.0395 71.8426 67.3584 71.5157 66.8136C71.1887 66.2551 70.7665 65.8328 70.2489 65.5468C69.7312 65.2607 69.1796 65.1177 68.5938 65.1177C68.0217 65.1177 67.4701 65.2607 66.9388 65.5468C66.4212 65.8328 65.9989 66.2551 65.672 66.8136C65.3451 67.3584 65.1817 68.0395 65.1817 68.8568C65.1817 69.6605 65.3451 70.3483 65.672 70.9204C65.9989 71.4789 66.4212 71.9012 66.9388 72.1872C67.4701 72.4733 68.0217 72.6163 68.5938 72.6163ZM87.2179 74.6391C86.2371 74.6391 85.3449 74.4007 84.5412 73.924C83.7512 73.4336 83.1178 72.7594 82.641 71.9012C82.1779 71.0294 81.9463 70.0146 81.9463 68.8568C81.9463 67.699 82.1779 66.691 82.641 65.8328C83.1178 64.961 83.7512 64.2868 84.5412 63.81C85.3449 63.3333 86.2371 63.0949 87.2179 63.0949C88.1441 63.0949 88.9546 63.3265 89.6493 63.7896C90.344 64.2391 90.848 64.8657 91.1613 65.6694V63.2379H93.511V74.4961H92.469C92.0875 74.4961 91.7743 74.3735 91.5291 74.1283C91.2839 73.8831 91.1613 73.5698 91.1613 73.1884V72.0442C90.848 72.8479 90.344 73.4813 89.6493 73.9444C88.9546 74.4076 88.1441 74.6391 87.2179 74.6391ZM87.7491 72.6163C88.3348 72.6163 88.8865 72.4733 89.4041 72.1872C89.9217 71.9012 90.344 71.4789 90.6709 70.9204C90.9978 70.3483 91.1613 69.6605 91.1613 68.8568C91.1613 68.0395 90.9978 67.3584 90.6709 66.8136C90.344 66.2551 89.9217 65.8328 89.4041 65.5468C88.8865 65.2607 88.3348 65.1177 87.7491 65.1177C87.177 65.1177 86.6253 65.2607 86.0941 65.5468C85.5765 65.8328 85.1542 66.2551 84.8273 66.8136C84.5004 67.3584 84.3369 68.0395 84.3369 68.8568C84.3369 69.6605 84.5004 70.3483 84.8273 70.9204C85.1542 71.4789 85.5765 71.9012 86.0941 72.1872C86.6253 72.4733 87.177 72.6163 87.7491 72.6163ZM96.5704 74.4961V63.2379H98.8997V65.5876C99.0768 65.1109 99.356 64.6886 99.7374 64.3208C100.119 63.9394 100.555 63.6397 101.045 63.4218C101.549 63.2039 102.053 63.0949 102.557 63.0949C103.415 63.0949 104.164 63.2856 104.805 63.667C105.458 64.0348 105.962 64.5728 106.317 65.2811C106.684 65.9895 106.868 66.8476 106.868 67.8556V74.4961H104.559V68.4073C104.559 67.3857 104.301 66.582 103.783 65.9963C103.265 65.4105 102.584 65.1177 101.74 65.1177C101.195 65.1177 100.705 65.2675 100.269 65.5672C99.8464 65.8669 99.5127 66.2823 99.2675 66.8136C99.0223 67.3312 98.8997 67.9305 98.8997 68.6116V74.4961H96.5704ZM114.335 74.6391C113.354 74.6391 112.462 74.4007 111.658 73.924C110.868 73.4336 110.234 72.7594 109.758 71.9012C109.295 71.0294 109.063 70.0146 109.063 68.8568C109.063 67.699 109.295 66.691 109.758 65.8328C110.234 64.961 110.868 64.2868 111.658 63.81C112.462 63.3333 113.354 63.0949 114.335 63.0949C115.261 63.0949 116.071 63.3265 116.766 63.7896C117.461 64.2391 117.965 64.8657 118.278 65.6694V59.3762H120.628V74.4961H119.586C119.204 74.4961 118.891 74.3735 118.646 74.1283C118.401 73.8831 118.278 73.5698 118.278 73.1884V72.0442C117.965 72.8479 117.461 73.4813 116.766 73.9444C116.071 74.4076 115.261 74.6391 114.335 74.6391ZM114.866 72.6163C115.451 72.6163 116.003 72.4733 116.521 72.1872C117.038 71.9012 117.461 71.4789 117.788 70.9204C118.114 70.3483 118.278 69.6605 118.278 68.8568C118.278 68.0395 118.114 67.3584 117.788 66.8136C117.461 66.2551 117.038 65.8328 116.521 65.5468C116.003 65.2607 115.451 65.1177 114.866 65.1177C114.294 65.1177 113.742 65.2607 113.211 65.5468C112.693 65.8328 112.271 66.2551 111.944 66.8136C111.617 67.3584 111.454 68.0395 111.454 68.8568C111.454 69.6605 111.617 70.3483 111.944 70.9204C112.271 71.4789 112.693 71.9012 113.211 72.1872C113.742 72.4733 114.294 72.6163 114.866 72.6163ZM132.897 74.6391C132.107 74.6391 131.399 74.5029 130.772 74.2305C130.146 73.9444 129.628 73.563 129.219 73.0863C128.811 72.6095 128.532 72.0919 128.382 71.5334L130.609 71.043C130.745 71.547 131.017 71.9489 131.426 72.2485C131.848 72.5346 132.325 72.6776 132.856 72.6776C133.537 72.6776 134.048 72.555 134.389 72.3098C134.743 72.051 134.92 71.7309 134.92 71.3495C134.92 70.9817 134.763 70.6957 134.45 70.4914C134.137 70.287 133.728 70.1168 133.224 69.9806C132.734 69.8443 132.209 69.7013 131.651 69.5515C131.092 69.4016 130.561 69.2041 130.057 68.9589C129.567 68.7138 129.165 68.3868 128.852 67.9782C128.538 67.5559 128.382 67.0043 128.382 66.3232C128.382 65.7238 128.559 65.179 128.913 64.6886C129.267 64.1982 129.764 63.81 130.404 63.524C131.058 63.2379 131.828 63.0949 132.713 63.0949C133.476 63.0949 134.15 63.2175 134.736 63.4627C135.322 63.7079 135.805 64.0552 136.187 64.5047C136.568 64.9406 136.827 65.465 136.963 66.078L134.736 66.6501C134.6 66.1325 134.362 65.7375 134.021 65.465C133.68 65.1926 133.217 65.0564 132.632 65.0564C132.005 65.0564 131.528 65.1722 131.201 65.4037C130.888 65.6217 130.731 65.9214 130.731 66.3028C130.731 66.6705 130.888 66.9634 131.201 67.1813C131.515 67.3857 131.916 67.5627 132.407 67.7126C132.897 67.8488 133.415 67.9918 133.96 68.1417C134.518 68.2915 135.043 68.489 135.533 68.7342C136.023 68.9658 136.425 69.2927 136.739 69.7149C137.052 70.1236 137.208 70.6616 137.208 71.3291C137.208 71.9148 137.031 72.4597 136.677 72.9637C136.337 73.4677 135.839 73.8763 135.186 74.1896C134.545 74.4893 133.783 74.6391 132.897 74.6391ZM139.73 74.4961V59.3762H142.059V65.5876C142.236 65.1109 142.515 64.6886 142.897 64.3208C143.278 63.9394 143.714 63.6397 144.204 63.4218C144.708 63.2039 145.212 63.0949 145.716 63.0949C146.574 63.0949 147.324 63.2856 147.964 63.667C148.618 64.0348 149.122 64.5728 149.476 65.2811C149.844 65.9895 150.027 66.8476 150.027 67.8556V74.4961H147.719V68.4073C147.719 67.3857 147.46 66.582 146.942 65.9963C146.425 65.4105 145.743 65.1177 144.899 65.1177C144.354 65.1177 143.864 65.2675 143.428 65.5672C143.006 65.8669 142.672 66.2823 142.427 66.8136C142.181 67.3312 142.059 67.9305 142.059 68.6116V74.4961H139.73ZM157.494 74.6391C156.513 74.6391 155.621 74.4007 154.817 73.924C154.027 73.4336 153.394 72.7594 152.917 71.9012C152.454 71.0294 152.222 70.0146 152.222 68.8568C152.222 67.699 152.454 66.691 152.917 65.8328C153.394 64.961 154.027 64.2868 154.817 63.81C155.621 63.3333 156.513 63.0949 157.494 63.0949C158.42 63.0949 159.23 63.3265 159.925 63.7896C160.62 64.2391 161.124 64.8657 161.437 65.6694V63.2379H163.787V74.4961H162.745C162.363 74.4961 162.05 74.3735 161.805 74.1283C161.56 73.8831 161.437 73.5698 161.437 73.1884V72.0442C161.124 72.8479 160.62 73.4813 159.925 73.9444C159.23 74.4076 158.42 74.6391 157.494 74.6391ZM158.025 72.6163C158.611 72.6163 159.162 72.4733 159.68 72.1872C160.198 71.9012 160.62 71.4789 160.947 70.9204C161.274 70.3483 161.437 69.6605 161.437 68.8568C161.437 68.0395 161.274 67.3584 160.947 66.8136C160.62 66.2551 160.198 65.8328 159.68 65.5468C159.162 65.2607 158.611 65.1177 158.025 65.1177C157.453 65.1177 156.901 65.2607 156.37 65.5468C155.852 65.8328 155.43 66.2551 155.103 66.8136C154.776 67.3584 154.613 68.0395 154.613 68.8568C154.613 69.6605 154.776 70.3483 155.103 70.9204C155.43 71.4789 155.852 71.9012 156.37 72.1872C156.901 72.4733 157.453 72.6163 158.025 72.6163ZM166.846 74.4961V63.2379H169.176V74.4961H166.846ZM168.501 68.8159L169.176 65.7102C169.448 64.9065 169.891 64.2731 170.504 63.81C171.13 63.3333 171.839 63.0949 172.629 63.0949V65.5059C172.52 65.4787 172.411 65.465 172.302 65.465C172.206 65.4514 172.104 65.4446 171.995 65.4446C171.437 65.4446 170.946 65.574 170.524 65.8328C170.102 66.078 169.768 66.4526 169.523 66.9566C169.291 67.447 169.176 68.0667 169.176 68.8159H168.501ZM174.829 74.4961V63.2379H177.158V74.4961H174.829ZM176.014 61.7464C175.524 61.7464 175.108 61.5897 174.768 61.2764C174.427 60.9631 174.257 60.5749 174.257 60.1118C174.257 59.6486 174.427 59.2604 174.768 58.9471C175.108 58.6202 175.524 58.4568 176.014 58.4568C176.491 58.4568 176.9 58.6202 177.24 58.9471C177.594 59.2604 177.771 59.6486 177.771 60.1118C177.771 60.5749 177.594 60.9631 177.24 61.2764C176.9 61.5897 176.491 61.7464 176.014 61.7464ZM180.335 74.4961V63.2379H182.664V65.5876C182.841 65.1109 183.12 64.6886 183.502 64.3208C183.883 63.9394 184.319 63.6397 184.809 63.4218C185.313 63.2039 185.817 63.0949 186.321 63.0949C187.18 63.0949 187.929 63.2856 188.569 63.667C189.223 64.0348 189.727 64.5728 190.081 65.2811C190.449 65.9895 190.633 66.8476 190.633 67.8556V74.4961H188.324V68.4073C188.324 67.3857 188.065 66.582 187.547 65.9963C187.03 65.4105 186.349 65.1177 185.504 65.1177C184.959 65.1177 184.469 65.2675 184.033 65.5672C183.611 65.8669 183.277 66.2823 183.032 66.8136C182.787 67.3312 182.664 67.9305 182.664 68.6116V74.4961H180.335ZM198.814 79.9924C197.901 79.9924 197.057 79.8493 196.28 79.5633C195.518 79.2772 194.857 78.855 194.298 78.2965C193.74 77.738 193.318 77.0569 193.032 76.2533L195.157 75.3951C195.47 76.1852 195.96 76.8049 196.628 77.2545C197.295 77.7176 198.024 77.9491 198.814 77.9491C199.454 77.9491 200.013 77.8266 200.489 77.5814C200.98 77.3362 201.361 76.9684 201.634 76.478C201.906 75.9876 202.042 75.3815 202.042 74.6596V72.0442C201.729 72.8479 201.225 73.4813 200.53 73.9444C199.836 74.4076 199.025 74.6391 198.099 74.6391C197.118 74.6391 196.226 74.4007 195.422 73.924C194.632 73.4336 193.999 72.7594 193.522 71.9012C193.059 71.0294 192.827 70.0146 192.827 68.8568C192.827 67.699 193.059 66.691 193.522 65.8328C193.999 64.961 194.632 64.2868 195.422 63.81C196.226 63.3333 197.118 63.0949 198.099 63.0949C199.025 63.0949 199.836 63.3265 200.53 63.7896C201.225 64.2391 201.729 64.8657 202.042 65.6694V63.2379H204.392V74.6187C204.392 75.4087 204.263 76.1307 204.004 76.7845C203.759 77.4383 203.398 78.0036 202.921 78.4804C202.444 78.9571 201.858 79.3249 201.164 79.5837C200.483 79.8562 199.699 79.9924 198.814 79.9924ZM198.63 72.6163C199.216 72.6163 199.767 72.4733 200.285 72.1872C200.803 71.9012 201.225 71.4789 201.552 70.9204C201.879 70.3483 202.042 69.6605 202.042 68.8568C202.042 68.0395 201.879 67.3584 201.552 66.8136C201.225 66.2551 200.803 65.8328 200.285 65.5468C199.767 65.2607 199.216 65.1177 198.63 65.1177C198.058 65.1177 197.506 65.2607 196.975 65.5468C196.457 65.8328 196.035 66.2551 195.708 66.8136C195.381 67.3584 195.218 68.0395 195.218 68.8568C195.218 69.6605 195.381 70.3483 195.708 70.9204C196.035 71.4789 196.457 71.9012 196.975 72.1872C197.506 72.4733 198.058 72.6163 198.63 72.6163ZM217.969 79.9924C217.057 79.9924 216.212 79.8493 215.436 79.5633C214.673 79.2772 214.012 78.855 213.454 78.2965C212.895 77.738 212.473 77.0569 212.187 76.2533L214.312 75.3951C214.625 76.1852 215.116 76.8049 215.783 77.2545C216.45 77.7176 217.179 77.9491 217.969 77.9491C218.609 77.9491 219.168 77.8266 219.645 77.5814C220.135 77.3362 220.516 76.9684 220.789 76.478C221.061 75.9876 221.198 75.3815 221.198 74.6596V72.0442C220.884 72.8479 220.38 73.4813 219.686 73.9444C218.991 74.4076 218.18 74.6391 217.254 74.6391C216.273 74.6391 215.381 74.4007 214.577 73.924C213.787 73.4336 213.154 72.7594 212.677 71.9012C212.214 71.0294 211.983 70.0146 211.983 68.8568C211.983 67.699 212.214 66.691 212.677 65.8328C213.154 64.961 213.787 64.2868 214.577 63.81C215.381 63.3333 216.273 63.0949 217.254 63.0949C218.18 63.0949 218.991 63.3265 219.686 63.7896C220.38 64.2391 220.884 64.8657 221.198 65.6694V63.2379H223.547V74.6187C223.547 75.4087 223.418 76.1307 223.159 76.7845C222.914 77.4383 222.553 78.0036 222.076 78.4804C221.599 78.9571 221.014 79.3249 220.319 79.5837C219.638 79.8562 218.855 79.9924 217.969 79.9924ZM217.785 72.6163C218.371 72.6163 218.923 72.4733 219.44 72.1872C219.958 71.9012 220.38 71.4789 220.707 70.9204C221.034 70.3483 221.198 69.6605 221.198 68.8568C221.198 68.0395 221.034 67.3584 220.707 66.8136C220.38 66.2551 219.958 65.8328 219.44 65.5468C218.923 65.2607 218.371 65.1177 217.785 65.1177C217.213 65.1177 216.662 65.2607 216.13 65.5468C215.613 65.8328 215.19 66.2551 214.864 66.8136C214.537 67.3584 214.373 68.0395 214.373 68.8568C214.373 69.6605 214.537 70.3483 214.864 70.9204C215.19 71.4789 215.613 71.9012 216.13 72.1872C216.662 72.4733 217.213 72.6163 217.785 72.6163ZM226.668 74.4961V63.2379H228.997V74.4961H226.668ZM227.853 61.7464C227.363 61.7464 226.947 61.5897 226.607 61.2764C226.266 60.9631 226.096 60.5749 226.096 60.1118C226.096 59.6486 226.266 59.2604 226.607 58.9471C226.947 58.6202 227.363 58.4568 227.853 58.4568C228.33 58.4568 228.738 58.6202 229.079 58.9471C229.433 59.2604 229.61 59.6486 229.61 60.1118C229.61 60.5749 229.433 60.9631 229.079 61.2764C228.738 61.5897 228.33 61.7464 227.853 61.7464ZM232.46 74.4961V65.1381H231.132V63.2379H232.46V62.4411C232.46 61.7872 232.541 61.2287 232.705 60.7656C232.882 60.3025 233.141 59.9211 233.481 59.6214C233.835 59.3081 234.278 59.0834 234.809 58.9471C235.354 58.7973 235.994 58.7224 236.73 58.7224V60.6634C236.267 60.6634 235.892 60.7247 235.606 60.8473C235.32 60.9563 235.116 61.1402 234.993 61.399C234.871 61.6578 234.809 62.0052 234.809 62.4411V63.2379H236.893V65.1381H234.809V74.4961H232.46ZM242.738 74.6391C241.88 74.6391 241.164 74.3463 240.592 73.7605C240.02 73.1748 239.734 72.3779 239.734 71.37V65.1381H237.997V63.2379H244.822V65.1381H242.084V71.513C242.084 71.8944 242.179 72.1668 242.37 72.3303C242.574 72.4937 242.792 72.5755 243.024 72.5755C243.228 72.5755 243.412 72.5414 243.575 72.4733C243.739 72.4052 243.896 72.2962 244.045 72.1464L245.251 73.5971C244.87 73.9649 244.481 74.2305 244.086 74.3939C243.691 74.5574 243.242 74.6391 242.738 74.6391ZM238.835 64.1165V63.2379C239.121 63.2379 239.339 63.1562 239.489 62.9927C239.652 62.8293 239.734 62.6045 239.734 62.3185V60.4387H242.084V61.9302C242.084 62.1209 242.036 62.3116 241.941 62.5024C241.846 62.6794 241.709 62.8361 241.532 62.9723C241.369 63.0949 241.185 63.1834 240.981 63.2379L238.835 64.1165ZM251.301 74.6391C250.511 74.6391 249.802 74.5029 249.176 74.2305C248.549 73.9444 248.031 73.563 247.623 73.0863C247.214 72.6095 246.935 72.0919 246.785 71.5334L249.012 71.043C249.148 71.547 249.421 71.9489 249.83 72.2485C250.252 72.5346 250.729 72.6776 251.26 72.6776C251.941 72.6776 252.452 72.555 252.792 72.3098C253.146 72.051 253.323 71.7309 253.323 71.3495C253.323 70.9817 253.167 70.6957 252.853 70.4914C252.54 70.287 252.132 70.1168 251.628 69.9806C251.137 69.8443 250.613 69.7013 250.054 69.5515C249.496 69.4016 248.965 69.2041 248.461 68.9589C247.97 68.7138 247.568 68.3868 247.255 67.9782C246.942 67.5559 246.785 67.0043 246.785 66.3232C246.785 65.7238 246.962 65.179 247.316 64.6886C247.671 64.1982 248.168 63.81 248.808 63.524C249.462 63.2379 250.231 63.0949 251.117 63.0949C251.88 63.0949 252.554 63.2175 253.14 63.4627C253.725 63.7079 254.209 64.0552 254.59 64.5047C254.972 64.9406 255.23 65.465 255.367 66.078L253.14 66.6501C253.003 66.1325 252.765 65.7375 252.424 65.465C252.084 65.1926 251.621 65.0564 251.035 65.0564C250.408 65.0564 249.932 65.1722 249.605 65.4037C249.291 65.6217 249.135 65.9214 249.135 66.3028C249.135 66.6705 249.291 66.9634 249.605 67.1813C249.918 67.3857 250.32 67.5627 250.81 67.7126C251.301 67.8488 251.818 67.9918 252.363 68.1417C252.922 68.2915 253.446 68.489 253.936 68.7342C254.427 68.9658 254.829 69.2927 255.142 69.7149C255.455 70.1236 255.612 70.6616 255.612 71.3291C255.612 71.9148 255.435 72.4597 255.081 72.9637C254.74 73.4677 254.243 73.8763 253.589 74.1896C252.949 74.4893 252.186 74.6391 251.301 74.6391ZM263.502 74.4961V63.2379H265.831V74.4961H263.502ZM264.687 61.7464C264.197 61.7464 263.781 61.5897 263.441 61.2764C263.1 60.9631 262.93 60.5749 262.93 60.1118C262.93 59.6486 263.1 59.2604 263.441 58.9471C263.781 58.6202 264.197 58.4568 264.687 58.4568C265.164 58.4568 265.572 58.6202 265.913 58.9471C266.267 59.2604 266.444 59.6486 266.444 60.1118C266.444 60.5749 266.267 60.9631 265.913 61.2764C265.572 61.5897 265.164 61.7464 264.687 61.7464ZM273.503 74.6391C272.522 74.6391 271.63 74.4007 270.826 73.924C270.036 73.4336 269.403 72.7594 268.926 71.9012C268.463 71.0294 268.231 70.0146 268.231 68.8568C268.231 67.699 268.463 66.691 268.926 65.8328C269.403 64.961 270.036 64.2868 270.826 63.81C271.63 63.3333 272.522 63.0949 273.503 63.0949C274.429 63.0949 275.239 63.3265 275.934 63.7896C276.629 64.2391 277.133 64.8657 277.446 65.6694V59.3762H279.796V74.4961H278.754C278.372 74.4961 278.059 74.3735 277.814 74.1283C277.569 73.8831 277.446 73.5698 277.446 73.1884V72.0442C277.133 72.8479 276.629 73.4813 275.934 73.9444C275.239 74.4076 274.429 74.6391 273.503 74.6391ZM274.034 72.6163C274.62 72.6163 275.171 72.4733 275.689 72.1872C276.207 71.9012 276.629 71.4789 276.956 70.9204C277.283 70.3483 277.446 69.6605 277.446 68.8568C277.446 68.0395 277.283 67.3584 276.956 66.8136C276.629 66.2551 276.207 65.8328 275.689 65.5468C275.171 65.2607 274.62 65.1177 274.034 65.1177C273.462 65.1177 272.91 65.2607 272.379 65.5468C271.861 65.8328 271.439 66.2551 271.112 66.8136C270.785 67.3584 270.622 68.0395 270.622 68.8568C270.622 69.6605 270.785 70.3483 271.112 70.9204C271.439 71.4789 271.861 71.9012 272.379 72.1872C272.91 72.4733 273.462 72.6163 274.034 72.6163ZM288.086 74.6391C287.173 74.6391 286.342 74.4961 285.593 74.21C284.858 73.924 284.224 73.5222 283.693 73.0045C283.175 72.4869 282.774 71.8876 282.487 71.2065C282.215 70.5118 282.079 69.7558 282.079 68.9385C282.079 68.0531 282.235 67.2563 282.549 66.5479C282.876 65.826 283.312 65.2062 283.856 64.6886C284.415 64.171 285.055 63.776 285.777 63.5035C286.499 63.2311 287.255 63.0949 288.045 63.0949C288.753 63.0949 289.4 63.1902 289.986 63.3809C290.572 63.5716 291.076 63.8373 291.498 64.1778C291.934 64.5183 292.268 64.9134 292.499 65.3629C292.731 65.8124 292.847 66.2959 292.847 66.8136C292.847 67.5355 292.635 68.1348 292.213 68.6116C291.791 69.0884 291.239 69.4629 290.558 69.7354C289.877 70.0078 289.128 70.1917 288.311 70.287C287.493 70.3824 286.683 70.4096 285.879 70.3688C285.743 70.3552 285.573 70.3483 285.368 70.3483C285.164 70.3347 284.98 70.3279 284.817 70.3279C284.667 70.3143 284.585 70.3075 284.572 70.3075C284.667 70.757 284.878 71.1656 285.205 71.5334C285.545 71.8876 285.968 72.1668 286.472 72.3711C286.976 72.5755 287.514 72.6776 288.086 72.6776C288.549 72.6776 289.005 72.5959 289.455 72.4324C289.918 72.269 290.34 72.0442 290.722 71.7582C291.103 71.4721 291.423 71.1452 291.682 70.7774L293.419 72.0238C292.969 72.6231 292.458 73.1203 291.886 73.5153C291.328 73.8967 290.728 74.1828 290.088 74.3735C289.448 74.5506 288.781 74.6391 288.086 74.6391ZM286.084 68.5094C286.588 68.5094 287.098 68.489 287.616 68.4481C288.134 68.3937 288.61 68.3051 289.046 68.1825C289.496 68.0463 289.857 67.8624 290.129 67.6309C290.402 67.3993 290.538 67.0996 290.538 66.7318C290.538 66.4185 290.436 66.1393 290.231 65.8941C290.041 65.6353 289.768 65.431 289.414 65.2811C289.06 65.1313 288.644 65.0564 288.168 65.0564C287.459 65.0564 286.826 65.213 286.267 65.5263C285.709 65.8396 285.266 66.2551 284.939 66.7727C284.626 67.2903 284.456 67.8488 284.429 68.4481C284.619 68.4618 284.858 68.4754 285.144 68.489C285.43 68.5026 285.743 68.5094 286.084 68.5094ZM300.001 74.6391C299.02 74.6391 298.128 74.4007 297.324 73.924C296.534 73.4336 295.901 72.7594 295.424 71.9012C294.961 71.0294 294.729 70.0146 294.729 68.8568C294.729 67.699 294.961 66.691 295.424 65.8328C295.901 64.961 296.534 64.2868 297.324 63.81C298.128 63.3333 299.02 63.0949 300.001 63.0949C300.927 63.0949 301.738 63.3265 302.432 63.7896C303.127 64.2391 303.631 64.8657 303.944 65.6694V63.2379H306.294V74.4961H305.252C304.87 74.4961 304.557 74.3735 304.312 74.1283C304.067 73.8831 303.944 73.5698 303.944 73.1884V72.0442C303.631 72.8479 303.127 73.4813 302.432 73.9444C301.738 74.4076 300.927 74.6391 300.001 74.6391ZM300.532 72.6163C301.118 72.6163 301.669 72.4733 302.187 72.1872C302.705 71.9012 303.127 71.4789 303.454 70.9204C303.781 70.3483 303.944 69.6605 303.944 68.8568C303.944 68.0395 303.781 67.3584 303.454 66.8136C303.127 66.2551 302.705 65.8328 302.187 65.5468C301.669 65.2607 301.118 65.1177 300.532 65.1177C299.96 65.1177 299.408 65.2607 298.877 65.5468C298.359 65.8328 297.937 66.2551 297.61 66.8136C297.283 67.3584 297.12 68.0395 297.12 68.8568C297.12 69.6605 297.283 70.3483 297.61 70.9204C297.937 71.4789 298.359 71.9012 298.877 72.1872C299.408 72.4733 299.96 72.6163 300.532 72.6163ZM313.256 74.6391C312.466 74.6391 311.758 74.5029 311.131 74.2305C310.504 73.9444 309.987 73.563 309.578 73.0863C309.169 72.6095 308.89 72.0919 308.74 71.5334L310.967 71.043C311.104 71.547 311.376 71.9489 311.785 72.2485C312.207 72.5346 312.684 72.6776 313.215 72.6776C313.896 72.6776 314.407 72.555 314.747 72.3098C315.102 72.051 315.279 71.7309 315.279 71.3495C315.279 70.9817 315.122 70.6957 314.809 70.4914C314.495 70.287 314.087 70.1168 313.583 69.9806C313.092 69.8443 312.568 69.7013 312.01 69.5515C311.451 69.4016 310.92 69.2041 310.416 68.9589C309.925 68.7138 309.524 68.3868 309.21 67.9782C308.897 67.5559 308.74 67.0043 308.74 66.3232C308.74 65.7238 308.917 65.179 309.272 64.6886C309.626 64.1982 310.123 63.81 310.763 63.524C311.417 63.2379 312.187 63.0949 313.072 63.0949C313.835 63.0949 314.509 63.2175 315.095 63.4627C315.681 63.7079 316.164 64.0552 316.546 64.5047C316.927 64.9406 317.186 65.465 317.322 66.078L315.095 66.6501C314.959 66.1325 314.72 65.7375 314.38 65.465C314.039 65.1926 313.576 65.0564 312.99 65.0564C312.364 65.0564 311.887 65.1722 311.56 65.4037C311.247 65.6217 311.09 65.9214 311.09 66.3028C311.09 66.6705 311.247 66.9634 311.56 67.1813C311.873 67.3857 312.275 67.5627 312.766 67.7126C313.256 67.8488 313.774 67.9918 314.318 68.1417C314.877 68.2915 315.401 68.489 315.892 68.7342C316.382 68.9658 316.784 69.2927 317.097 69.7149C317.41 70.1236 317.567 70.6616 317.567 71.3291C317.567 71.9148 317.39 72.4597 317.036 72.9637C316.695 73.4677 316.198 73.8763 315.544 74.1896C314.904 74.4893 314.141 74.6391 313.256 74.6391Z" fill="#212121"/>
</svg>
